<svg width="190" height="38" viewBox="0 0 190 38" fill="none" xmlns="http://www.w3.org/2000/svg">
<mask id="mask0_2565_2" style="mask-type:alpha" maskUnits="userSpaceOnUse" x="0" y="0" width="190" height="38">
<rect width="190" height="38" fill="#D9D9D9"/>
</mask>
<g mask="url(#mask0_2565_2)">
<path d="M93.1465 1.15771V1.27059C95.52 2.28649 95.9838 4.34651 95.9838 7.73285V23.1971C95.9838 32.566 101.058 37.5326 110.116 37.5326C117.564 37.5326 123.239 32.4813 123.239 23.2818V8.46656C123.239 4.57227 124.575 2.25827 126.976 1.24237V1.15771L118.137 1.15771V1.27059C120.51 2.28649 121.875 4.60049 121.875 8.49478V22.9996C121.875 31.0421 117.1 35.3879 110.552 35.3879C103.596 35.3879 100.513 30.6188 100.513 22.7456V7.70463C100.513 4.3183 100.976 2.28649 103.35 1.24237V1.15771L93.1465 1.15771Z" fill="black"/>
<path d="M0.00182984 1.18628L-0.0527344 1.27094C2.34809 2.28684 2.7846 4.31864 2.7846 7.7332L2.7846 30.4499C2.7846 33.8362 2.34809 35.868 -0.0527344 36.9121L-0.0527344 37.025H25.3196L25.2378 36.4042C24.9922 34.4006 25.1832 32.397 25.8107 30.4781L26.4109 28.6156C26.2745 28.6438 26.1108 28.6438 25.9744 28.6156C23.4917 33.1307 20.3543 35.7551 15.3071 35.7551H7.31343L7.31343 7.7332C7.31343 4.34686 7.74995 2.31506 10.1508 1.27094V1.18628L0.00182984 1.18628Z" fill="black"/>
<path d="M151.668 32.7074L149.322 29.6597C147.685 27.7972 145.693 26.3016 143.484 25.2575L145.775 25.06C151.341 24.8624 157.152 19.6418 157.152 13.0949C157.152 6.12469 151.341 1.18628 144.193 1.18628L129.324 1.18628V1.29916C131.725 2.31506 132.162 4.34686 132.162 7.76142V30.5063C132.162 33.8926 131.725 35.9245 129.324 36.9686V37.0814H139.473V36.9686C137.1 35.9527 136.636 33.9209 136.636 30.5063V25.0317C137.045 24.9471 137.482 24.8906 137.918 24.8906H138C140.373 24.9471 142.883 27.0635 145.475 31.1554C146.294 32.4535 148.067 34.8521 148.067 34.8521C148.858 35.7269 149.813 36.4324 150.877 36.8839C151.941 37.3636 153.087 37.5894 154.26 37.5612C157.234 37.5612 160.562 34.9085 160.562 34.9085C158.08 36.2066 153.824 35.3601 151.668 32.7074ZM136.581 24.4391V22.0687V22.0969V2.48438L143.511 2.48438C149.076 2.48438 152.214 7.64854 152.214 13.3207C152.214 17.0174 151.914 22.8306 143.811 24.3545C143.675 24.3827 143.538 24.4109 143.374 24.4109L136.581 24.4109V24.4391Z" fill="black"/>
<path d="M92.3843 26.6653C90.1472 32.8454 86.0549 35.2158 80.3256 35.2158C73.5597 35.2158 67.4758 29.2051 67.0938 19.0743C66.7119 9.14103 71.0224 1.80397 79.0161 1.80397C83.354 1.80397 87.8555 5.16209 89.4652 9.9594H89.7925L90.0381 4.93633C88.5921 3.5818 86.8733 2.53768 85.0182 1.88863C84.3907 1.69109 83.7086 1.43712 82.9447 1.23958C82.5082 1.1267 82.0717 1.01383 81.6897 0.929167C80.7894 0.731631 79.8891 0.646973 78.9615 0.646973C69.1673 0.646973 61.5283 8.5202 61.9102 19.1025C62.3194 30.1645 69.9584 37.5298 79.6436 37.5298C86.9006 37.5298 91.7023 33.3251 92.6572 26.7782L92.3843 26.6653Z" fill="black"/>
<path d="M59.5875 31.1825L45.8919 0L45.7282 0L33.042 29.9691C31.5688 33.4119 30.2592 35.867 28.2949 36.9111V37.024H36.2886V36.9111C34.8699 36.2903 33.8605 34.9922 33.8605 33.4119C33.8605 32.1138 34.2697 30.9003 34.7062 29.7998L38.2256 21.3057L50.4207 21.3057L54.6222 31.0132C55.1678 32.2549 55.4679 33.299 55.4679 34.1456C55.4679 35.3872 54.6222 36.2903 53.1489 36.9111V37.024L63.6525 37.024V36.9111C61.7155 35.867 61.088 34.5689 59.5875 31.1825ZM38.7985 20.0076L44.2004 6.94199L49.8751 20.0076L38.7985 20.0076Z" fill="black"/>
<path d="M189.803 29.6315L189.284 29.3775C186.829 33.6105 183.719 35.6705 178.835 35.6705H169.505V19.5007L176.516 19.5007C180.336 19.5007 181.645 19.6983 183.228 23.7336H183.473L183.31 22.6331C182.928 20.0369 182.928 17.4125 183.255 14.8163L183.473 13.2078H183.201C181.618 17.356 180.309 18.2026 176.489 18.2026L169.478 18.2026V2.48438L177.799 2.48438C182.737 2.48438 185.547 4.31864 187.92 8.18471L188.357 8.01539L188.22 7.56388C187.566 5.50386 187.238 3.35918 187.211 1.18628H185.574C185.329 1.2145 185.056 1.2145 184.81 1.18628L162.193 1.18628V1.29916C164.567 2.31506 165.031 4.34686 165.031 7.76142V30.5063C165.031 33.8927 164.594 35.9245 162.193 36.9686V37.0815H188.766C188.684 35.1061 188.93 33.1307 189.421 31.2118L189.803 29.6315Z" fill="black"/>
</g>
</svg>
