<svg width="35" height="32" fill="none" xmlns="http://www.w3.org/2000/svg">
    <path d="M17 25.539h5.727l-2.862-3.8-2.865 3.8z" fill="#1F2538"/>
    <path d="M18.596 7H6v5.718h5.347c.065-.645.18-1.285.347-1.906H7.906V8.906h6.616a10.794 10.794 0 0 0-1.22 3.665 10.368 10.368 0 0 0-.118 1.6v11.364h1.906V14.17A9.081 9.081 0 0 1 18.596 7z" fill="#2563EB"/>
    <path d="M24.167 7c-.738 0-1.453.114-2.126.318h-.008A7.182 7.182 0 0 0 17 13.996v8.971l1.906-2.534V14.17a5.256 5.256 0 0 1 5.257-5.265h3.93v1.906H24.16a3.35 3.35 0 0 0-3.35 3.351v6.274l1.913 2.534v-8.8c0-.8.645-1.444 1.441-1.444L30 12.717V7h-5.833z" fill="#2563EB"/>
</svg>
